#!OML:ASF H:\Terrain\Patient Classification 1\PLAYGROUND\JustinFriday\JustinFriday.ASF
:FULLY-SPECIFIED
:DEGREES
101
root 9.47537 17.8509 -18.2035 4.09169 -3.9021 -5.50335
lowerback 14.1015 0.717413 2.72267
upperback 2.75608 1.53389 3.4051
thorax -5.01582 0.729348 1.76819
lowerneck -6.89698 -3.48111 -7.70806
upperneck 0.406801 -4.19527 6.62953
head 1.6961 -1.99228 3.38514
rclavicle -9.64106e-015 -3.77691e-014
rhumerus -22.2343 3.21663 -80.01
rradius 98.074
rwrist -15.0102
rhand -20.7352 -8.82298
rfingers 7.12502
rthumb 5.63003 -38.7282
lclavicle -9.64106e-015 -3.77691e-014
lhumerus -29.9786 -0.173421 78.2802
lradius 110.305
lwrist 8.71049
lhand -35.0667 -21.7988
lfingers 7.12502
lthumb -8.20916 8.02172
rfemur -12.8226 1.40944 24.4375
rtibia 31.2326
rfoot -15.304 -9.58626
rtoes 7.29997
lfemur -13.4328 3.0499 -11.0939
ltibia 32.3526
lfoot -17.5298 2.23792
ltoes -4.30828
102
root 9.47475 17.8457 -18.1972 4.03707 -3.7916 -5.35917
lowerback 14.1529 0.701172 2.47538
upperback 2.71223 1.4828 3.43671
thorax -5.09703 0.707768 1.95015
lowerneck -6.57954 -3.47505 -7.66995
upperneck 0.33719 -4.20615 6.50146
head 1.61078 -2.00468 3.33553
rclavicle -1.02374e-014 -5.52621e-014
rhumerus -22.3179 3.117 -79.886
rradius 98.3879
rwrist -15.149
rhand -21.1934 -8.86432
rfingers 7.12502
rthumb 5.18765 -38.7808
lclavicle -1.02374e-014 -5.52621e-014
lhumerus -30.0798 -0.141949 78.366
lradius 110.228
lwrist 8.70252
lhand -35.0715 -21.8243
lfingers 7.12502
lthumb -8.21377 7.99608
rfemur -12.8778 1.26333 24.2729
rtibia 31.4766
rfoot -15.4061 -9.59985
rtoes 6.93457
lfemur -13.4034 2.97768 -11.2307
ltibia 32.3842
lfoot -17.6567 2.19226
ltoes -4.60964
103
root 9.47422 17.8406 -18.1985 4.0715 -3.68562 -5.24881
lowerback 14.1932 0.720999 2.26306
upperback 2.69896 1.48338 3.48955
thorax -5.1401 0.711576 2.1257
lowerneck -6.52038 -3.52696 -7.40603
upperneck 0.269662 -4.28696 6.11516
head 1.5625 -2.05174 3.14799
rclavicle -2.99171e-014 -4.21423e-014
rhumerus -22.3536 3.01115 -79.7214
rradius 98.6947
rwrist -15.1316
rhand -21.0392 -8.16456
rfingers 7.12502
rthumb 5.33648 -38.0774
lclavicle -2.99171e-014 -4.21423e-014
lhumerus -29.951 -0.202186 78.508
lradius 110.104
lwrist 8.7837
lhand -34.9666 -21.6811
lfingers 7.12502
lthumb -8.11257 8.14317
rfemur -13.0176 1.2027 24.1564
rtibia 31.6545
rfoot -15.3759 -9.70212
rtoes 6.69131
lfemur -13.5037 2.89803 -11.3436
ltibia 32.4318
lfoot -17.6823 2.15097
ltoes -4.86734
104
root 9.47376 17.8417 -18.2021 4.11409 -3.57193 -5.28093
lowerback 14.2605 0.764489 2.27046
upperback 2.73983 1.54427 3.50904
thorax -5.13549 0.741464 2.13041
lowerneck -6.91153 -3.63778 -7.28166
upperneck 0.407111 -4.4188 5.9766
head 1.67913 -2.11464 3.06662
rclavicle -2.68359e-015 1.19271e-015
rhumerus -22.1901 2.73318 -79.6302
rradius 98.9538
rwrist -15.1901
rhand -21.1742 -7.96033
rfingers 7.12502
rthumb 5.20617 -37.8764
lclavicle -2.68359e-015 1.19271e-015
lhumerus -29.5905 -0.416399 78.5839
lradius 109.974
lwrist 8.93988
lhand -34.8187 -21.5196
lfingers 7.12502
lthumb -7.96974 8.31016
rfemur -13.1417 1.11422 24.1984
rtibia 31.7831
rfoot -15.3601 -9.73729
rtoes 6.63199
lfemur -13.6045 2.86769 -11.3069
ltibia 32.4622
lfoot -17.6486 2.09514
ltoes -5.05758
105
root 9.47445 17.8428 -18.2008 4.12821 -3.44642 -5.38835
lowerback 14.3615 0.773638 2.40494
upperback 2.69502 1.5831 3.50438
thorax -5.23532 0.757842 2.04141
lowerneck -6.98268 -3.70977 -7.35898
upperneck 0.456441 -4.51019 6.13205
head 1.72308 -2.15668 3.13
rclavicle -1.69961e-014 -1.90833e-014
rhumerus -22.1723 2.47761 -79.6181
rradius 99.1808
rwrist -15.2105
rhand -21.3069 -8.09323
rfingers 7.12502
rthumb 5.07802 -38.0124
lclavicle -1.69961e-014 -1.90833e-014
lhumerus -29.4772 -0.647536 78.5981
lradius 109.947
lwrist 9.08367
lhand -34.877 -21.6536
lfingers 7.12502
lthumb -8.0261 8.174
rfemur -13.1825 0.970048 24.326
rtibia 31.8575
rfoot -15.2891 -9.80143
rtoes 6.1211
lfemur -13.6436 2.90036 -11.1853
ltibia 32.473
lfoot -17.6945 1.98579
ltoes -5.14278
106
root 9.47644 17.8414 -18.1963 4.10314 -3.34824 -5.30079
lowerback 14.3593 0.783248 2.37824
upperback 2.72809 1.58656 3.44165
thorax -5.198 0.759829 1.98945
lowerneck -7.0092 -3.77489 -7.26175
upperneck 0.403094 -4.60183 6.12709
head 1.7136 -2.20155 3.10516
rclavicle -1.38155e-014 -1.59028e-015
rhumerus -22.1336 2.2428 -79.6418
rradius 99.4871
rwrist -15.1051
rhand -21.2309 -8.25781
rfingers 7.12502
rthumb 5.1514 -38.1752
lclavicle -1.38155e-014 -1.59028e-015
lhumerus -29.302 -0.851798 78.679
lradius 109.93
lwrist 9.28091
lhand -35.1823 -21.964
lfingers 7.12502
lthumb -8.3207 7.85217
rfemur -13.1493 0.756322 24.2095
rtibia 31.8709
rfoot -15.266 -9.60832
rtoes 6.41574
lfemur -13.6408 2.9223 -11.293
ltibia 32.4956
lfoot -17.7687 1.88518
ltoes -4.80071
107
root 9.4741 17.8417 -18.1874 3.96691 -3.31457 -5.22477
lowerback 14.3492 0.803861 2.31311
upperback 2.88178 1.59329 3.389
thorax -5.03018 0.764691 1.96955
lowerneck -7.17942 -3.81114 -7.10481
upperneck 0.382013 -4.64989 6.06577
head 1.7334 -2.22359 3.05002
rclavicle -1.33186e-014 1.07344e-014
rhumerus -21.8609 2.02369 -79.7204
rradius 99.7437
rwrist -15.1011
rhand -21.0459 -8.30769
rfingers 7.12502
rthumb 5.33002 -38.2207
lclavicle -1.33186e-014 1.07344e-014
lhumerus -28.9371 -0.953165 78.7368
lradius 109.84
lwrist 9.43102
lhand -35.1792 -22.0011
lfingers 7.12502
lthumb -8.31774 7.81516
rfemur -12.9742 0.626756 24.1178
rtibia 31.8557
rfoot -15.3523 -9.42321
rtoes 6.84075
lfemur -13.4776 2.922 -11.3712
ltibia 32.5203
lfoot -17.8199 1.86452
ltoes -4.56101
108
root 9.46796 17.8391 -18.181 3.97275 -3.25056 -5.565
lowerback 14.4008 0.808 2.64225
upperback 2.85347 1.65333 3.41878
thorax -5.08095 0.789091 1.80346
lowerneck -7.07216 -3.81543 -7.03497
upperneck 0.368023 -4.67237 6.20455
head 1.71383 -2.23331 3.08469
rclavicle -1.2921e-014 -7.95139e-016
rhumerus -21.6809 1.76002 -79.8503
rradius 99.8875
rwrist -15.1266
rhand -21.0393 -8.34052
rfingers 7.12502
rthumb 5.33639 -38.2533
lclavicle -1.2921e-014 -7.95139e-016
lhumerus -28.8113 -1.16926 78.6769
lradius 109.783
lwrist 9.49393
lhand -34.8 -21.6718
lfingers 7.12502
lthumb -7.95178 8.15859
rfemur -12.9651 0.716571 24.5421
rtibia 31.8575
rfoot -15.3552 -9.65117
rtoes 6.18266
lfemur -13.4673 2.95704 -10.9486
ltibia 32.5322
lfoot -17.8577 1.80705
ltoes -4.74938
109
root 9.46951 17.8377 -18.1779 4.07155 -3.08964 -5.73773
lowerback 14.4465 0.804824 2.86229
upperback 2.78652 1.69003 3.45397
thorax -5.17204 0.803207 1.70907
lowerneck -7.19458 -3.84124 -7.24693
upperneck 0.543082 -4.69517 6.46244
head 1.8125 -2.23886 3.21183
rclavicle 7.95139e-015 4.45278e-014
rhumerus -21.5738 1.49412 -79.8317
rradius 100.048
rwrist -15.0655
rhand -21.2709 -8.5005
rfingers 7.12502
rthumb 5.11281 -38.4188
lclavicle 7.95139e-015 4.45278e-014
lhumerus -28.7195 -1.39766 78.7562
lradius 109.745
lwrist 9.48966
lhand -34.4631 -21.1403
lfingers 7.12502
lthumb -7.6266 8.70223
rfemur -13.07 0.618951 24.743
rtibia 31.8667
rfoot -15.277 -9.78385
rtoes 5.6879
lfemur -13.6057 2.89111 -10.7488
ltibia 32.5407
lfoot -17.9017 1.72104
ltoes -4.63041
110
root 9.47576 17.8381 -18.1748 4.08648 -2.98833 -5.48808
lowerback 14.5443 0.808024 2.6422
upperback 2.73748 1.66738 3.43353
thorax -5.28305 0.794633 1.81487
lowerneck -7.20884 -3.78763 -7.66766
upperneck 0.723551 -4.60224 6.75021
head 1.89314 -2.18878 3.39754
rclavicle -1.18277e-014 -3.61788e-014
rhumerus -21.5096 1.38195 -79.7327
rradius 100.256
rwrist -15.045
rhand -21.1922 -8.48606
rfingers 7.12502
rthumb 5.18875 -38.4025
lclavicle -1.18277e-014 -3.61788e-014
lhumerus -28.6665 -1.44522 78.9369
lradius 109.676
lwrist 9.51414
lhand -34.2361 -20.8254
lfingers 7.12502
lthumb -7.40748 9.02493
rfemur -13.0791 0.415414 24.4242
rtibia 31.8919
rfoot -15.3232 -9.67348
rtoes 5.93688
lfemur -13.6381 2.76048 -11.0605
ltibia 32.5361
lfoot -17.9295 1.69499
ltoes -4.19157
111
root 9.47874 17.8372 -18.1694 4.10688 -2.86135 -5.35523
lowerback 14.5289 0.807899 2.53885
upperback 2.71138 1.65128 3.416
thorax -5.30449 0.788306 1.85782
lowerneck -6.99132 -3.76387 -7.828
upperneck 0.665656 -4.57568 6.92065
head 1.84393 -2.17623 3.49172
rclavicle 1.40143e-014 3.26007e-014
rhumerus -21.3657 1.22826 -79.6465
rradius 100.466
rwrist -15.0565
rhand -21.0543 -8.09729
rfingers 7.12502
rthumb 5.32192 -38.0105
lclavicle 1.40143e-014 3.26007e-014
lhumerus -28.574 -1.55443 79.0689
lradius 109.526
lwrist 9.54587
lhand -34.0918 -21.126
lfingers 7.12502
lthumb -7.26817 8.72916
rfemur -13.1029 0.304378 24.2673
rtibia 31.9571
rfoot -15.4735 -9.65386
rtoes 6.41988
lfemur -13.6381 2.66425 -11.2201
ltibia 32.4805
lfoot -17.9771 1.63789
ltoes -4.33663
